<svg width="36" height="40" viewBox="0 0 36 40" fill="none" xmlns="http://www.w3.org/2000/svg">
<path d="M17.9438 2.5C16.6177 2.5 15.346 3.02678 14.4083 3.96447C13.4706 4.90215 12.9438 6.17392 12.9438 7.5V12.5H10.4438V7.5C10.4438 5.51088 11.234 3.60322 12.6405 2.1967C14.047 0.790176 15.9547 0 17.9438 0C19.9329 0 21.8406 0.790176 23.2471 2.1967C24.6537 3.60322 25.4438 5.51088 25.4438 7.5V12.5H22.9438V7.5C22.9438 6.17392 22.417 4.90215 21.4794 3.96447C20.5417 3.02678 19.2699 2.5 17.9438 2.5ZM10.4438 12.5H6.34633C5.44851 12.5002 4.58057 12.8225 3.90023 13.4083C3.21988 13.9942 2.7723 14.8047 2.63883 15.6925L0.0688294 32.825C-0.0642011 33.714 -0.00392176 34.6211 0.245555 35.4847C0.495032 36.3482 0.927837 37.1478 1.51444 37.8288C2.10105 38.5099 2.82766 39.0564 3.64469 39.4311C4.46173 39.8058 5.34997 39.9998 6.24883 40H29.6388C30.5377 39.9998 31.4259 39.8058 32.243 39.4311C33.06 39.0564 33.7866 38.5099 34.3732 37.8288C34.9598 37.1478 35.3926 36.3482 35.6421 35.4847C35.8916 34.6211 35.9519 33.714 35.8188 32.825L33.2488 15.6925C33.1154 14.8051 32.6682 13.9949 31.9884 13.4092C31.3086 12.8234 30.4412 12.5008 29.5438 12.5H25.4438V16.25C25.4438 16.5815 25.3121 16.8995 25.0777 17.1339C24.8433 17.3683 24.5253 17.5 24.1938 17.5C23.8623 17.5 23.5444 17.3683 23.3099 17.1339C23.0755 16.8995 22.9438 16.5815 22.9438 16.25V12.5H12.9438V16.25C12.9438 16.5815 12.8121 16.8995 12.5777 17.1339C12.3433 17.3683 12.0253 17.5 11.6938 17.5C11.3623 17.5 11.0444 17.3683 10.8099 17.1339C10.5755 16.8995 10.4438 16.5815 10.4438 16.25V12.5Z" fill="#52C41A"/>
</svg>
